<svg xmlns="http://www.w3.org/2000/svg" width="224.15" height="35" viewBox="0 0 224.15 35"><rect class="svg__rect" x="0" y="0" width="77.97" height="35" fill="#E44D26"/><rect class="svg__rect" x="75.97" y="0" width="148.18" height="35" fill="#261300"/><path class="svg__text" d="M15.00 22L13.46 22L16.68 13.47L18.01 13.47L21.24 22L19.69 22L18.99 20.01L15.69 20.01L15.00 22ZM17.34 15.28L16.10 18.82L18.58 18.82L17.34 15.28ZM27.65 22L25.19 22L25.19 13.47L27.71 13.47Q28.84 13.47 29.72 13.97Q30.59 14.48 31.07 15.40Q31.56 16.33 31.56 17.52L31.56 17.52L31.56 17.95Q31.56 19.16 31.07 20.08Q30.59 21.00 29.69 21.50Q28.80 22 27.65 22L27.65 22ZM26.67 14.66L26.67 20.82L27.64 20.82Q28.81 20.82 29.43 20.09Q30.06 19.36 30.07 17.99L30.07 17.99L30.07 17.52Q30.07 16.13 29.46 15.40Q28.86 14.66 27.71 14.66L27.71 14.66L26.67 14.66ZM35.75 18.00L35.75 18.00L35.75 17.52Q35.75 16.28 36.19 15.32Q36.64 14.37 37.44 13.86Q38.25 13.35 39.29 13.35Q40.33 13.35 41.14 13.85Q41.94 14.35 42.38 15.29Q42.82 16.23 42.83 17.48L42.83 17.48L42.83 17.96Q42.83 19.21 42.39 20.16Q41.96 21.10 41.16 21.61Q40.35 22.12 39.30 22.12L39.30 22.12Q38.26 22.12 37.45 21.61Q36.64 21.10 36.20 20.17Q35.76 19.23 35.75 18.00ZM37.23 17.46L37.23 17.96Q37.23 19.36 37.78 20.13Q38.33 20.90 39.30 20.90L39.30 20.90Q40.29 20.90 40.82 20.15Q41.35 19.40 41.35 17.96L41.35 17.96L41.35 17.51Q41.35 16.09 40.81 15.34Q40.27 14.58 39.29 14.58L39.29 14.58Q38.33 14.58 37.79 15.33Q37.24 16.09 37.23 17.46L37.23 17.46ZM50.40 22L47.29 22L47.29 13.47L50.22 13.47Q51.66 13.47 52.42 14.05Q53.18 14.63 53.18 15.78L53.18 15.78Q53.18 16.36 52.86 16.83Q52.54 17.30 51.93 17.56L51.93 17.56Q52.63 17.75 53.00 18.26Q53.38 18.78 53.38 19.51L53.38 19.51Q53.38 20.71 52.61 21.36Q51.84 22 50.40 22L50.40 22ZM48.78 18.15L48.78 20.82L50.42 20.82Q51.12 20.82 51.51 20.47Q51.90 20.13 51.90 19.51L51.90 19.51Q51.90 18.18 50.55 18.15L50.55 18.15L48.78 18.15ZM48.78 14.66L48.78 17.06L50.23 17.06Q50.92 17.06 51.31 16.75Q51.70 16.43 51.70 15.86L51.70 15.86Q51.70 15.23 51.34 14.95Q50.98 14.66 50.22 14.66L50.22 14.66L48.78 14.66ZM63.43 22L57.85 22L57.85 13.47L63.39 13.47L63.39 14.66L59.33 14.66L59.33 17.02L62.84 17.02L62.84 18.19L59.33 18.19L59.33 20.82L63.43 20.82L63.43 22Z" fill="#FFFFFF"/><path class="svg__text" d="M92.54 22L90.16 22L90.16 13.60L92.54 13.60L92.54 22ZM104.10 22L97.71 22L97.71 13.60L100.09 13.60L100.09 20.11L104.10 20.11L104.10 22ZM114.90 22L108.52 22L108.52 13.60L110.89 13.60L110.89 20.11L114.90 20.11L114.90 22ZM119.25 18.26L119.25 18.26L119.25 13.60L121.63 13.60L121.63 18.19Q121.63 20.20 123.22 20.20L123.22 20.20Q124.80 20.20 124.80 18.19L124.80 18.19L124.80 13.60L127.15 13.60L127.15 18.26Q127.15 20.13 126.11 21.15Q125.07 22.17 123.20 22.17L123.20 22.17Q121.32 22.17 120.29 21.15Q119.25 20.13 119.25 18.26ZM131.65 21.24L131.65 21.24L132.43 19.49Q132.99 19.86 133.73 20.09Q134.48 20.32 135.20 20.32L135.20 20.32Q136.56 20.32 136.57 19.64L136.57 19.64Q136.57 19.28 136.18 19.11Q135.79 18.93 134.92 18.74L134.92 18.74Q133.97 18.53 133.34 18.30Q132.70 18.06 132.25 17.55Q131.79 17.03 131.79 16.16L131.79 16.16Q131.79 15.39 132.21 14.77Q132.63 14.15 133.47 13.79Q134.30 13.43 135.51 13.43L135.51 13.43Q136.34 13.43 137.14 13.62Q137.95 13.80 138.56 14.17L138.56 14.17L137.83 15.93Q136.63 15.28 135.50 15.28L135.50 15.28Q134.79 15.28 134.47 15.49Q134.14 15.70 134.14 16.04L134.14 16.04Q134.14 16.37 134.53 16.54Q134.91 16.71 135.76 16.89L135.76 16.89Q136.72 17.10 137.35 17.33Q137.98 17.56 138.44 18.07Q138.91 18.58 138.91 19.46L138.91 19.46Q138.91 20.21 138.49 20.83Q138.07 21.44 137.23 21.80Q136.39 22.17 135.19 22.17L135.19 22.17Q134.17 22.17 133.21 21.92Q132.25 21.67 131.65 21.24ZM145.28 15.48L142.69 15.48L142.69 13.60L150.22 13.60L150.22 15.48L147.65 15.48L147.65 22L145.28 22L145.28 15.48ZM156.97 22L154.59 22L154.59 13.60L158.43 13.60Q159.57 13.60 160.41 13.98Q161.25 14.35 161.71 15.06Q162.16 15.76 162.16 16.71L162.16 16.71Q162.16 17.62 161.74 18.30Q161.31 18.98 160.52 19.36L160.52 19.36L162.33 22L159.78 22L158.26 19.77L156.97 19.77L156.97 22ZM156.97 15.47L156.97 17.93L158.28 17.93Q159.02 17.93 159.39 17.61Q159.76 17.29 159.76 16.71L159.76 16.71Q159.76 16.12 159.39 15.79Q159.02 15.47 158.28 15.47L158.28 15.47L156.97 15.47ZM168.37 22L165.94 22L169.65 13.60L172.00 13.60L175.71 22L173.24 22L172.58 20.37L169.03 20.37L168.37 22ZM170.81 15.93L169.72 18.61L171.88 18.61L170.81 15.93ZM181.66 15.48L179.07 15.48L179.07 13.60L186.60 13.60L186.60 15.48L184.03 15.48L184.03 22L181.66 22L181.66 15.48ZM190.54 17.80L190.54 17.80Q190.54 16.55 191.14 15.55Q191.75 14.56 192.81 14.00Q193.87 13.43 195.20 13.43L195.20 13.43Q196.53 13.43 197.60 14.00Q198.66 14.56 199.27 15.55Q199.87 16.55 199.87 17.80L199.87 17.80Q199.87 19.05 199.27 20.04Q198.66 21.04 197.60 21.60Q196.54 22.17 195.20 22.17L195.20 22.17Q193.87 22.17 192.81 21.60Q191.75 21.04 191.14 20.04Q190.54 19.05 190.54 17.80ZM192.94 17.80L192.94 17.80Q192.94 18.51 193.24 19.05Q193.54 19.60 194.06 19.90Q194.57 20.20 195.20 20.20L195.20 20.20Q195.84 20.20 196.36 19.90Q196.87 19.60 197.17 19.05Q197.47 18.51 197.47 17.80L197.47 17.80Q197.47 17.09 197.17 16.54Q196.87 16 196.36 15.70Q195.84 15.40 195.20 15.40L195.20 15.40Q194.57 15.40 194.05 15.70Q193.54 16 193.24 16.54Q192.94 17.09 192.94 17.80ZM206.98 22L204.60 22L204.60 13.60L208.45 13.60Q209.59 13.60 210.43 13.98Q211.27 14.35 211.72 15.06Q212.18 15.76 212.18 16.71L212.18 16.71Q212.18 17.62 211.75 18.30Q211.32 18.98 210.53 19.36L210.53 19.36L212.34 22L209.80 22L208.28 19.77L206.98 19.77L206.98 22ZM206.98 15.47L206.98 17.93L208.30 17.93Q209.03 17.93 209.40 17.61Q209.78 17.29 209.78 16.71L209.78 16.71Q209.78 16.12 209.40 15.79Q209.03 15.47 208.30 15.47L208.30 15.47L206.98 15.47Z" fill="#F29200" x="88.97"/></svg>