<svg xmlns="http://www.w3.org/2000/svg" width="211.44" height="35" viewBox="0 0 211.44 35"><rect class="svg__rect" x="0" y="0" width="77.97" height="35" fill="#23C3EF"/><rect class="svg__rect" x="75.97" y="0" width="135.47" height="35" fill="#312E4F"/><path class="svg__text" d="M15.00 22L13.46 22L16.68 13.47L18.01 13.47L21.24 22L19.69 22L18.99 20.01L15.69 20.01L15.00 22ZM17.34 15.28L16.10 18.82L18.58 18.82L17.34 15.28ZM27.65 22L25.19 22L25.19 13.47L27.71 13.47Q28.84 13.47 29.72 13.97Q30.59 14.48 31.07 15.40Q31.56 16.33 31.56 17.52L31.56 17.52L31.56 17.95Q31.56 19.16 31.07 20.08Q30.59 21.00 29.69 21.50Q28.80 22 27.65 22L27.65 22ZM26.67 14.66L26.67 20.82L27.64 20.82Q28.81 20.82 29.43 20.09Q30.06 19.36 30.07 17.99L30.07 17.99L30.07 17.52Q30.07 16.13 29.46 15.40Q28.86 14.66 27.71 14.66L27.71 14.66L26.67 14.66ZM35.75 18.00L35.75 18.00L35.75 17.52Q35.75 16.28 36.19 15.32Q36.64 14.37 37.44 13.86Q38.25 13.35 39.29 13.35Q40.33 13.35 41.14 13.85Q41.94 14.35 42.38 15.29Q42.82 16.23 42.83 17.48L42.83 17.48L42.83 17.96Q42.83 19.21 42.39 20.16Q41.96 21.10 41.16 21.61Q40.35 22.12 39.30 22.12L39.30 22.12Q38.26 22.12 37.45 21.61Q36.64 21.10 36.20 20.17Q35.76 19.23 35.75 18.00ZM37.23 17.46L37.23 17.96Q37.23 19.36 37.78 20.13Q38.33 20.90 39.30 20.90L39.30 20.90Q40.29 20.90 40.82 20.15Q41.35 19.40 41.35 17.96L41.35 17.96L41.35 17.51Q41.35 16.09 40.81 15.34Q40.27 14.58 39.29 14.58L39.29 14.58Q38.33 14.58 37.79 15.33Q37.24 16.09 37.23 17.46L37.23 17.46ZM50.40 22L47.29 22L47.29 13.47L50.22 13.47Q51.66 13.47 52.42 14.05Q53.18 14.63 53.18 15.78L53.18 15.78Q53.18 16.36 52.86 16.83Q52.54 17.30 51.93 17.56L51.93 17.56Q52.63 17.75 53.00 18.26Q53.38 18.78 53.38 19.51L53.38 19.51Q53.38 20.71 52.61 21.36Q51.84 22 50.40 22L50.40 22ZM48.78 18.15L48.78 20.82L50.42 20.82Q51.12 20.82 51.51 20.47Q51.90 20.13 51.90 19.51L51.90 19.51Q51.90 18.18 50.55 18.15L50.55 18.15L48.78 18.15ZM48.78 14.66L48.78 17.06L50.23 17.06Q50.92 17.06 51.31 16.75Q51.70 16.43 51.70 15.86L51.70 15.86Q51.70 15.23 51.34 14.95Q50.98 14.66 50.22 14.66L50.22 14.66L48.78 14.66ZM63.43 22L57.85 22L57.85 13.47L63.39 13.47L63.39 14.66L59.33 14.66L59.33 17.02L62.84 17.02L62.84 18.19L59.33 18.19L59.33 20.82L63.43 20.82L63.43 22Z" fill="#FFFFFF"/><path class="svg__text" d="M92.54 22L90.16 22L90.16 13.60L94.00 13.60Q95.14 13.60 95.98 13.98Q96.82 14.35 97.28 15.06Q97.73 15.76 97.73 16.71L97.73 16.71Q97.73 17.66 97.28 18.35Q96.82 19.05 95.98 19.42Q95.14 19.80 94.00 19.80L94.00 19.80L92.54 19.80L92.54 22ZM92.54 15.47L92.54 17.93L93.86 17.93Q94.59 17.93 94.96 17.61Q95.33 17.29 95.33 16.71L95.33 16.71Q95.33 16.12 94.96 15.80Q94.59 15.47 93.86 15.47L93.86 15.47L92.54 15.47ZM104.86 22L102.49 22L102.49 13.60L104.86 13.60L104.86 16.76L108.11 16.76L108.11 13.60L110.48 13.60L110.48 22L108.11 22L108.11 18.72L104.86 18.72L104.86 22ZM115.21 17.80L115.21 17.80Q115.21 16.55 115.82 15.55Q116.42 14.56 117.48 14.00Q118.55 13.43 119.88 13.43L119.88 13.43Q121.21 13.43 122.27 14.00Q123.33 14.56 123.94 15.55Q124.55 16.55 124.55 17.80L124.55 17.80Q124.55 19.05 123.94 20.04Q123.33 21.04 122.27 21.60Q121.21 22.17 119.88 22.17L119.88 22.17Q118.55 22.17 117.48 21.60Q116.42 21.04 115.82 20.04Q115.21 19.05 115.21 17.80ZM117.61 17.80L117.61 17.80Q117.61 18.51 117.91 19.05Q118.21 19.60 118.73 19.90Q119.24 20.20 119.88 20.20L119.88 20.20Q120.52 20.20 121.03 19.90Q121.55 19.60 121.85 19.05Q122.14 18.51 122.14 17.80L122.14 17.80Q122.14 17.09 121.85 16.54Q121.55 16 121.03 15.70Q120.52 15.40 119.88 15.40L119.88 15.40Q119.24 15.40 118.73 15.70Q118.21 16 117.91 16.54Q117.61 17.09 117.61 17.80ZM131.07 15.48L128.48 15.48L128.48 13.60L136.01 13.60L136.01 15.48L133.44 15.48L133.44 22L131.07 22L131.07 15.48ZM139.95 17.80L139.95 17.80Q139.95 16.55 140.55 15.55Q141.16 14.56 142.22 14.00Q143.28 13.43 144.61 13.43L144.61 13.43Q145.94 13.43 147.01 14.00Q148.07 14.56 148.68 15.55Q149.28 16.55 149.28 17.80L149.28 17.80Q149.28 19.05 148.68 20.04Q148.07 21.04 147.01 21.60Q145.95 22.17 144.61 22.17L144.61 22.17Q143.28 22.17 142.22 21.60Q141.16 21.04 140.55 20.04Q139.95 19.05 139.95 17.80ZM142.35 17.80L142.35 17.80Q142.35 18.51 142.65 19.05Q142.95 19.60 143.47 19.90Q143.98 20.20 144.61 20.20L144.61 20.20Q145.25 20.20 145.77 19.90Q146.28 19.60 146.58 19.05Q146.88 18.51 146.88 17.80L146.88 17.80Q146.88 17.09 146.58 16.54Q146.28 16 145.77 15.70Q145.25 15.40 144.61 15.40L144.61 15.40Q143.98 15.40 143.46 15.70Q142.95 16 142.65 16.54Q142.35 17.09 142.35 17.80ZM153.43 21.24L153.43 21.24L154.21 19.49Q154.77 19.86 155.51 20.09Q156.26 20.32 156.98 20.32L156.98 20.32Q158.34 20.32 158.35 19.64L158.35 19.64Q158.35 19.28 157.96 19.11Q157.57 18.93 156.70 18.74L156.70 18.74Q155.75 18.53 155.12 18.30Q154.48 18.06 154.03 17.55Q153.57 17.03 153.57 16.16L153.57 16.16Q153.57 15.39 153.99 14.77Q154.41 14.15 155.25 13.79Q156.08 13.43 157.29 13.43L157.29 13.43Q158.11 13.43 158.92 13.62Q159.73 13.80 160.34 14.17L160.34 14.17L159.61 15.93Q158.41 15.28 157.28 15.28L157.28 15.28Q156.57 15.28 156.25 15.49Q155.92 15.70 155.92 16.04L155.92 16.04Q155.92 16.37 156.31 16.54Q156.69 16.71 157.54 16.89L157.54 16.89Q158.50 17.10 159.13 17.33Q159.76 17.56 160.22 18.07Q160.69 18.58 160.69 19.46L160.69 19.46Q160.69 20.21 160.27 20.83Q159.85 21.44 159.01 21.80Q158.17 22.17 156.97 22.17L156.97 22.17Q155.95 22.17 154.99 21.92Q154.03 21.67 153.43 21.24ZM167.64 22L165.26 22L165.26 13.60L167.64 13.60L167.64 16.76L170.88 16.76L170.88 13.60L173.26 13.60L173.26 22L170.88 22L170.88 18.72L167.64 18.72L167.64 22ZM177.99 17.80L177.99 17.80Q177.99 16.55 178.59 15.55Q179.20 14.56 180.26 14.00Q181.32 13.43 182.65 13.43L182.65 13.43Q183.98 13.43 185.05 14.00Q186.11 14.56 186.72 15.55Q187.32 16.55 187.32 17.80L187.32 17.80Q187.32 19.05 186.72 20.04Q186.11 21.04 185.05 21.60Q183.99 22.17 182.65 22.17L182.65 22.17Q181.32 22.17 180.26 21.60Q179.20 21.04 178.59 20.04Q177.99 19.05 177.99 17.80ZM180.39 17.80L180.39 17.80Q180.39 18.51 180.69 19.05Q180.99 19.60 181.51 19.90Q182.02 20.20 182.65 20.20L182.65 20.20Q183.29 20.20 183.81 19.90Q184.32 19.60 184.62 19.05Q184.92 18.51 184.92 17.80L184.92 17.80Q184.92 17.09 184.62 16.54Q184.32 16 183.81 15.70Q183.29 15.40 182.65 15.40L182.65 15.40Q182.02 15.40 181.50 15.70Q180.99 16 180.69 16.54Q180.39 17.09 180.39 17.80ZM194.43 22L192.05 22L192.05 13.60L195.90 13.60Q197.03 13.60 197.87 13.98Q198.71 14.35 199.17 15.06Q199.63 15.76 199.63 16.71L199.63 16.71Q199.63 17.66 199.17 18.35Q198.71 19.05 197.87 19.42Q197.03 19.80 195.90 19.80L195.90 19.80L194.43 19.80L194.43 22ZM194.43 15.47L194.43 17.93L195.75 17.93Q196.48 17.93 196.85 17.61Q197.23 17.29 197.23 16.71L197.23 16.71Q197.23 16.12 196.85 15.80Q196.48 15.47 195.75 15.47L195.75 15.47L194.43 15.47Z" fill="#32BDE9" x="88.97"/></svg>