<svg xmlns="http://www.w3.org/2000/svg" width="96.73" height="35" viewBox="0 0 96.73 35"><rect class="svg__rect" x="0" y="0" width="96.73" height="35" fill="#000000"/><rect class="svg__rect" x="96.73" y="0" width="0" height="35" fill="#312E4F"/><path class="svg__text" d="M17.33 22L14.22 22L14.22 13.47L17.14 13.47Q18.59 13.47 19.34 14.05Q20.10 14.63 20.10 15.78L20.10 15.78Q20.10 16.36 19.78 16.83Q19.47 17.30 18.86 17.56L18.86 17.56Q19.55 17.75 19.93 18.26Q20.31 18.78 20.31 19.51L20.31 19.51Q20.31 20.71 19.53 21.36Q18.76 22 17.33 22L17.33 22ZM15.70 18.15L15.70 20.82L17.35 20.82Q18.04 20.82 18.44 20.47Q18.83 20.13 18.83 19.51L18.83 19.51Q18.83 18.18 17.47 18.15L17.47 18.15L15.70 18.15ZM15.70 14.66L15.70 17.06L17.15 17.06Q17.84 17.06 18.23 16.75Q18.62 16.43 18.62 15.86L18.62 15.86Q18.62 15.23 18.26 14.95Q17.90 14.66 17.14 14.66L17.14 14.66L15.70 14.66ZM30.35 22L24.78 22L24.78 13.47L30.31 13.47L30.31 14.66L26.26 14.66L26.26 17.02L29.76 17.02L29.76 18.19L26.26 18.19L26.26 20.82L30.35 20.82L30.35 22ZM36.03 22L34.55 22L34.55 13.47L36.03 13.47L36.03 17.02L39.85 17.02L39.85 13.47L41.32 13.47L41.32 22L39.85 22L39.85 18.21L36.03 18.21L36.03 22ZM46.84 22L45.30 22L48.52 13.47L49.85 13.47L53.08 22L51.54 22L50.84 20.01L47.53 20.01L46.84 22ZM49.19 15.28L47.95 18.82L50.42 18.82L49.19 15.28ZM58.52 22L57.04 22L57.04 13.47L58.52 13.47L62.33 19.54L62.33 13.47L63.81 13.47L63.81 22L62.32 22L58.52 15.95L58.52 22ZM68.28 18.19L68.28 18.19L68.28 17.39Q68.28 16.19 68.70 15.27Q69.13 14.35 69.93 13.85Q70.73 13.35 71.78 13.35L71.78 13.35Q73.19 13.35 74.05 14.12Q74.91 14.89 75.06 16.29L75.06 16.29L73.58 16.29Q73.47 15.37 73.04 14.96Q72.61 14.55 71.78 14.55L71.78 14.55Q70.81 14.55 70.29 15.26Q69.78 15.96 69.76 17.33L69.76 17.33L69.76 18.09Q69.76 19.47 70.26 20.20Q70.75 20.92 71.71 20.92L71.71 20.92Q72.58 20.92 73.02 20.53Q73.46 20.14 73.58 19.22L73.58 19.22L75.06 19.22Q74.93 20.59 74.05 21.35Q73.17 22.12 71.71 22.12L71.71 22.12Q70.69 22.12 69.91 21.63Q69.14 21.15 68.72 20.26Q68.29 19.37 68.28 18.19ZM84.95 22L79.37 22L79.37 13.47L84.90 13.47L84.90 14.66L80.85 14.66L80.85 17.02L84.35 17.02L84.35 18.19L80.85 18.19L80.85 20.82L84.95 20.82L84.95 22Z" fill="#FFFFFF"/><path class="svg__text" d="" fill="#32BDE9" x="109.73"/></svg>