<svg xmlns="http://www.w3.org/2000/svg" width="116.3" height="35" viewBox="0 0 116.3 35"><rect class="svg__rect" x="0" y="0" width="116.3" height="35" fill="#890AFC"/><rect class="svg__rect" x="116.3" y="0" width="0" height="35" fill="#005384"/><path class="svg__text" d="M17.33 22L14.22 22L14.22 13.47L17.14 13.47Q18.59 13.47 19.34 14.05Q20.10 14.63 20.10 15.78L20.10 15.78Q20.10 16.36 19.78 16.83Q19.47 17.30 18.86 17.56L18.86 17.56Q19.55 17.75 19.93 18.26Q20.31 18.78 20.31 19.51L20.31 19.51Q20.31 20.71 19.53 21.36Q18.76 22 17.33 22L17.33 22ZM15.70 18.15L15.70 20.82L17.35 20.82Q18.04 20.82 18.44 20.47Q18.83 20.13 18.83 19.51L18.83 19.51Q18.83 18.18 17.47 18.15L17.47 18.15L15.70 18.15ZM15.70 14.66L15.70 17.06L17.15 17.06Q17.84 17.06 18.23 16.75Q18.62 16.43 18.62 15.86L18.62 15.86Q18.62 15.23 18.26 14.95Q17.90 14.66 17.14 14.66L17.14 14.66L15.70 14.66ZM24.51 18.00L24.51 18.00L24.51 17.52Q24.51 16.28 24.95 15.32Q25.39 14.37 26.20 13.86Q27.00 13.35 28.05 13.35Q29.09 13.35 29.89 13.85Q30.70 14.35 31.14 15.29Q31.58 16.23 31.58 17.48L31.58 17.48L31.58 17.96Q31.58 19.21 31.15 20.16Q30.72 21.10 29.91 21.61Q29.11 22.12 28.06 22.12L28.06 22.12Q27.02 22.12 26.21 21.61Q25.40 21.10 24.95 20.17Q24.51 19.23 24.51 18.00ZM25.99 17.46L25.99 17.96Q25.99 19.36 26.54 20.13Q27.08 20.90 28.06 20.90L28.06 20.90Q29.04 20.90 29.57 20.15Q30.10 19.40 30.10 17.96L30.10 17.96L30.10 17.51Q30.10 16.09 29.57 15.34Q29.03 14.58 28.05 14.58L28.05 14.58Q27.08 14.58 26.54 15.33Q26.00 16.09 25.99 17.46L25.99 17.46ZM35.78 18.00L35.78 18.00L35.78 17.52Q35.78 16.28 36.22 15.32Q36.66 14.37 37.47 13.86Q38.28 13.35 39.32 13.35Q40.36 13.35 41.17 13.85Q41.97 14.35 42.41 15.29Q42.85 16.23 42.86 17.48L42.86 17.48L42.86 17.96Q42.86 19.21 42.42 20.16Q41.99 21.10 41.18 21.61Q40.38 22.12 39.33 22.12L39.33 22.12Q38.29 22.12 37.48 21.61Q36.67 21.10 36.23 20.17Q35.79 19.23 35.78 18.00ZM37.26 17.46L37.26 17.96Q37.26 19.36 37.81 20.13Q38.36 20.90 39.33 20.90L39.33 20.90Q40.31 20.90 40.85 20.15Q41.38 19.40 41.38 17.96L41.38 17.96L41.38 17.51Q41.38 16.09 40.84 15.34Q40.30 14.58 39.32 14.58L39.32 14.58Q38.36 14.58 37.82 15.33Q37.27 16.09 37.26 17.46L37.26 17.46ZM49.00 14.66L46.37 14.66L46.37 13.47L53.14 13.47L53.14 14.66L50.48 14.66L50.48 22L49.00 22L49.00 14.66ZM56.46 19.42L56.46 19.42L57.94 19.42Q57.94 20.15 58.42 20.55Q58.90 20.95 59.80 20.95L59.80 20.95Q60.57 20.95 60.96 20.63Q61.35 20.32 61.35 19.80L61.35 19.80Q61.35 19.24 60.95 18.94Q60.56 18.63 59.53 18.32Q58.50 18.01 57.89 17.63L57.89 17.63Q56.72 16.90 56.72 15.72L56.72 15.72Q56.72 14.69 57.56 14.02Q58.40 13.35 59.74 13.35L59.74 13.35Q60.64 13.35 61.33 13.68Q62.03 14.01 62.43 14.61Q62.83 15.22 62.83 15.96L62.83 15.96L61.35 15.96Q61.35 15.29 60.93 14.91Q60.51 14.54 59.73 14.54L59.73 14.54Q59.01 14.54 58.60 14.85Q58.20 15.16 58.20 15.71L58.20 15.71Q58.20 16.18 58.64 16.50Q59.07 16.81 60.07 17.10Q61.06 17.40 61.67 17.78Q62.27 18.16 62.55 18.65Q62.83 19.13 62.83 19.79L62.83 19.79Q62.83 20.86 62.02 21.49Q61.20 22.12 59.80 22.12L59.80 22.12Q58.87 22.12 58.10 21.77Q57.32 21.43 56.89 20.83Q56.46 20.22 56.46 19.42ZM68.80 14.66L66.17 14.66L66.17 13.47L72.93 13.47L72.93 14.66L70.27 14.66L70.27 22L68.80 22L68.80 14.66ZM78.17 22L76.69 22L76.69 13.47L79.69 13.47Q81.17 13.47 81.97 14.13Q82.77 14.79 82.77 16.05L82.77 16.05Q82.77 16.90 82.36 17.48Q81.95 18.06 81.21 18.37L81.21 18.37L83.12 21.92L83.12 22L81.54 22L79.82 18.71L78.17 18.71L78.17 22ZM78.17 14.66L78.17 17.52L79.70 17.52Q80.45 17.52 80.87 17.15Q81.29 16.77 81.29 16.11L81.29 16.11Q81.29 15.43 80.90 15.05Q80.51 14.68 79.74 14.66L79.74 14.66L78.17 14.66ZM87.95 22L86.40 22L89.63 13.47L90.96 13.47L94.19 22L92.64 22L91.94 20.01L88.64 20.01L87.95 22ZM90.29 15.28L89.05 18.82L91.53 18.82L90.29 15.28ZM99.62 22L98.14 22L98.14 13.47L101.40 13.47Q102.83 13.47 103.68 14.21Q104.52 14.96 104.52 16.18L104.52 16.18Q104.52 17.44 103.69 18.13Q102.87 18.83 101.39 18.83L101.39 18.83L99.62 18.83L99.62 22ZM99.62 14.66L99.62 17.64L101.40 17.64Q102.20 17.64 102.61 17.27Q103.03 16.90 103.03 16.19L103.03 16.19Q103.03 15.50 102.61 15.09Q102.18 14.68 101.45 14.66L101.45 14.66L99.62 14.66Z" fill="#FFFFFF"/><path class="svg__text" d="" fill="#FFFFFF" x="129.3"/></svg>