<svg xmlns="http://www.w3.org/2000/svg" width="284.78" height="35" viewBox="0 0 284.78 35"><rect class="svg__rect" x="0" y="0" width="94.37" height="35" fill="#404EED"/><rect class="svg__rect" x="92.37" y="0" width="192.41" height="35" fill="#EBECF3"/><path class="svg__text" d="M16.67 22L14.22 22L14.22 13.47L16.74 13.47Q17.87 13.47 18.74 13.97Q19.62 14.48 20.10 15.40Q20.58 16.33 20.58 17.52L20.58 17.52L20.58 17.95Q20.58 19.16 20.10 20.08Q19.61 21.00 18.72 21.50Q17.83 22 16.67 22L16.67 22ZM15.70 14.66L15.70 20.82L16.67 20.82Q17.83 20.82 18.46 20.09Q19.08 19.36 19.09 17.99L19.09 17.99L19.09 17.52Q19.09 16.13 18.49 15.40Q17.89 14.66 16.74 14.66L16.74 14.66L15.70 14.66ZM26.61 22L25.13 22L25.13 13.47L26.61 13.47L26.61 22ZM30.99 19.42L30.99 19.42L32.47 19.42Q32.47 20.15 32.95 20.55Q33.43 20.95 34.33 20.95L34.33 20.95Q35.10 20.95 35.49 20.63Q35.88 20.32 35.88 19.80L35.88 19.80Q35.88 19.24 35.48 18.94Q35.09 18.63 34.06 18.32Q33.03 18.01 32.42 17.63L32.42 17.63Q31.25 16.90 31.25 15.72L31.25 15.72Q31.25 14.69 32.09 14.02Q32.93 13.35 34.27 13.35L34.27 13.35Q35.16 13.35 35.86 13.68Q36.56 14.01 36.96 14.61Q37.36 15.22 37.36 15.96L37.36 15.96L35.88 15.96Q35.88 15.29 35.46 14.91Q35.04 14.54 34.26 14.54L34.26 14.54Q33.54 14.54 33.13 14.85Q32.73 15.16 32.73 15.71L32.73 15.71Q32.73 16.18 33.17 16.50Q33.60 16.81 34.60 17.10Q35.59 17.40 36.20 17.78Q36.80 18.16 37.08 18.65Q37.36 19.13 37.36 19.79L37.36 19.79Q37.36 20.86 36.54 21.49Q35.73 22.12 34.33 22.12L34.33 22.12Q33.40 22.12 32.62 21.77Q31.85 21.43 31.42 20.83Q30.99 20.22 30.99 19.42ZM41.38 18.19L41.38 18.19L41.38 17.39Q41.38 16.19 41.81 15.27Q42.24 14.35 43.04 13.85Q43.84 13.35 44.89 13.35L44.89 13.35Q46.30 13.35 47.16 14.12Q48.02 14.89 48.16 16.29L48.16 16.29L46.68 16.29Q46.58 15.37 46.15 14.96Q45.72 14.55 44.89 14.55L44.89 14.55Q43.92 14.55 43.40 15.26Q42.88 15.96 42.87 17.33L42.87 17.33L42.87 18.09Q42.87 19.47 43.36 20.20Q43.86 20.92 44.81 20.92L44.81 20.92Q45.69 20.92 46.13 20.53Q46.57 20.14 46.68 19.22L46.68 19.22L48.16 19.22Q48.03 20.59 47.15 21.35Q46.27 22.12 44.81 22.12L44.81 22.12Q43.80 22.12 43.02 21.63Q42.24 21.15 41.82 20.26Q41.40 19.37 41.38 18.19ZM52.20 18.00L52.20 18.00L52.20 17.52Q52.20 16.28 52.65 15.32Q53.09 14.37 53.89 13.86Q54.70 13.35 55.74 13.35Q56.79 13.35 57.59 13.85Q58.40 14.35 58.84 15.29Q59.28 16.23 59.28 17.48L59.28 17.48L59.28 17.96Q59.28 19.21 58.85 20.16Q58.41 21.10 57.61 21.61Q56.80 22.12 55.75 22.12L55.75 22.12Q54.72 22.12 53.91 21.61Q53.09 21.10 52.65 20.17Q52.21 19.23 52.20 18.00ZM53.69 17.46L53.69 17.96Q53.69 19.36 54.23 20.13Q54.78 20.90 55.75 20.90L55.75 20.90Q56.74 20.90 57.27 20.15Q57.80 19.40 57.80 17.96L57.80 17.96L57.80 17.51Q57.80 16.09 57.26 15.34Q56.73 14.58 55.74 14.58L55.74 14.58Q54.78 14.58 54.24 15.33Q53.70 16.09 53.69 17.46L53.69 17.46ZM65.23 22L63.75 22L63.75 13.47L66.75 13.47Q68.22 13.47 69.03 14.13Q69.83 14.79 69.83 16.05L69.83 16.05Q69.83 16.90 69.42 17.48Q69.00 18.06 68.26 18.37L68.26 18.37L70.18 21.92L70.18 22L68.59 22L66.88 18.71L65.23 18.71L65.23 22ZM65.23 14.66L65.23 17.52L66.75 17.52Q67.50 17.52 67.92 17.15Q68.35 16.77 68.35 16.11L68.35 16.11Q68.35 15.43 67.96 15.05Q67.57 14.68 66.79 14.66L66.79 14.66L65.23 14.66ZM76.68 22L74.22 22L74.22 13.47L76.74 13.47Q77.87 13.47 78.75 13.97Q79.63 14.48 80.11 15.40Q80.59 16.33 80.59 17.52L80.59 17.52L80.59 17.95Q80.59 19.16 80.10 20.08Q79.62 21.00 78.73 21.50Q77.83 22 76.68 22L76.68 22ZM75.71 14.66L75.71 20.82L76.67 20.82Q77.84 20.82 78.46 20.09Q79.09 19.36 79.10 17.99L79.10 17.99L79.10 17.52Q79.10 16.13 78.49 15.40Q77.89 14.66 76.74 14.66L76.74 14.66L75.71 14.66Z" fill="#FFFFFF"/><path class="svg__text" d="M105.97 21.24L105.97 21.24L106.75 19.49Q107.31 19.86 108.06 20.09Q108.80 20.32 109.52 20.32L109.52 20.32Q110.89 20.32 110.89 19.64L110.89 19.64Q110.89 19.28 110.50 19.11Q110.11 18.93 109.25 18.74L109.25 18.74Q108.30 18.53 107.66 18.30Q107.03 18.06 106.57 17.55Q106.12 17.03 106.12 16.16L106.12 16.16Q106.12 15.39 106.54 14.77Q106.96 14.15 107.79 13.79Q108.63 13.43 109.83 13.43L109.83 13.43Q110.66 13.43 111.47 13.62Q112.27 13.80 112.89 14.17L112.89 14.17L112.15 15.93Q110.95 15.28 109.82 15.28L109.82 15.28Q109.11 15.28 108.79 15.49Q108.47 15.70 108.47 16.04L108.47 16.04Q108.47 16.37 108.85 16.54Q109.24 16.71 110.09 16.89L110.09 16.89Q111.05 17.10 111.68 17.33Q112.31 17.56 112.77 18.07Q113.23 18.58 113.23 19.46L113.23 19.46Q113.23 20.21 112.81 20.83Q112.39 21.44 111.55 21.80Q110.71 22.17 109.51 22.17L109.51 22.17Q108.49 22.17 107.53 21.92Q106.57 21.67 105.97 21.24ZM119.23 22L116.80 22L120.51 13.60L122.85 13.60L126.57 22L124.10 22L123.44 20.37L119.89 20.37L119.23 22ZM121.66 15.93L120.58 18.61L122.74 18.61L121.66 15.93ZM133.05 22L130.72 22L130.72 13.60L132.68 13.60L136.39 18.07L136.39 13.60L138.71 13.60L138.71 22L136.76 22L133.05 17.52L133.05 22ZM145.67 15.48L143.09 15.48L143.09 13.60L150.61 13.60L150.61 15.48L148.04 15.48L148.04 22L145.67 22L145.67 15.48ZM157.36 22L154.98 22L154.98 13.60L157.36 13.60L157.36 16.76L160.60 16.76L160.60 13.60L162.97 13.60L162.97 22L160.60 22L160.60 18.72L157.36 18.72L157.36 22ZM170.51 22L168.13 22L168.13 13.60L170.51 13.60L170.51 22ZM177.48 15.48L174.90 15.48L174.90 13.60L182.42 13.60L182.42 15.48L179.85 15.48L179.85 22L177.48 22L177.48 15.48ZM188.21 22L185.78 22L189.49 13.60L191.84 13.60L195.55 22L193.08 22L192.42 20.37L188.87 20.37L188.21 22ZM190.65 15.93L189.56 18.61L191.72 18.61L190.65 15.93ZM202.94 19.46L199.44 19.46L199.44 17.71L202.94 17.71L202.94 19.46ZM210.20 22L207.84 22L207.84 13.60L210.20 13.60L210.20 17.09L213.45 13.60L216.06 13.60L212.64 17.32L216.25 22L213.49 22L211.08 18.95L210.20 19.90L210.20 22ZM221.23 20.21L219.72 20.21L219.72 18.67L221.43 18.67L221.62 16.94L220.11 16.94L220.11 15.39L221.82 15.39L222.05 13.60L223.68 13.60L223.45 15.39L224.93 15.39L225.16 13.60L226.79 13.60L226.56 15.39L228.07 15.39L228.07 16.94L226.36 16.94L226.17 18.67L227.67 18.67L227.67 20.21L225.97 20.21L225.74 22L224.11 22L224.34 20.21L222.86 20.21L222.63 22L221.00 22L221.23 20.21ZM223.26 16.94L223.05 18.67L224.53 18.67L224.74 16.94L223.26 16.94ZM232.17 18.03L232.17 18.03Q232.17 16.59 232.73 15.55Q233.28 14.51 234.29 13.97Q235.30 13.43 236.63 13.43L236.63 13.43Q237.35 13.43 238.00 13.59Q238.65 13.74 239.10 14.04L239.10 14.04L238.24 15.75Q237.63 15.31 236.69 15.31L236.69 15.31Q235.78 15.31 235.22 15.82Q234.66 16.32 234.57 17.27L234.57 17.27Q235.29 16.65 236.47 16.65L236.47 16.65Q237.26 16.65 237.92 16.98Q238.58 17.31 238.97 17.91Q239.35 18.52 239.35 19.30L239.35 19.30Q239.35 20.15 238.92 20.80Q238.48 21.46 237.73 21.82Q236.98 22.17 236.06 22.17L236.06 22.17Q234.26 22.17 233.21 21.10Q232.17 20.03 232.17 18.03ZM234.74 19.42L234.74 19.42Q234.74 19.89 235.05 20.18Q235.37 20.48 235.92 20.48L235.92 20.48Q236.42 20.48 236.74 20.19Q237.05 19.90 237.05 19.41L237.05 19.41Q237.05 18.93 236.74 18.64Q236.42 18.35 235.90 18.35L235.90 18.35Q235.39 18.35 235.06 18.65Q234.74 18.94 234.74 19.42ZM245.34 16.78L243.31 16.78L243.31 13.60L250.27 13.60L250.27 15.09L247.31 22L244.72 22L247.55 15.48L245.34 15.48L245.34 16.78ZM254.51 18.03L254.51 18.03Q254.51 16.59 255.07 15.55Q255.63 14.51 256.63 13.97Q257.64 13.43 258.97 13.43L258.97 13.43Q259.69 13.43 260.34 13.59Q260.99 13.74 261.44 14.04L261.44 14.04L260.58 15.75Q259.97 15.31 259.04 15.31L259.04 15.31Q258.12 15.31 257.56 15.82Q257.00 16.32 256.91 17.27L256.91 17.27Q257.63 16.65 258.81 16.65L258.81 16.65Q259.60 16.65 260.26 16.98Q260.92 17.31 261.31 17.91Q261.70 18.52 261.70 19.30L261.70 19.30Q261.70 20.15 261.26 20.80Q260.82 21.46 260.07 21.82Q259.32 22.17 258.40 22.17L258.40 22.17Q256.60 22.17 255.56 21.10Q254.51 20.03 254.51 18.03ZM257.08 19.42L257.08 19.42Q257.08 19.89 257.40 20.18Q257.71 20.48 258.26 20.48L258.26 20.48Q258.76 20.48 259.08 20.19Q259.39 19.90 259.39 19.41L259.39 19.41Q259.39 18.93 259.08 18.64Q258.76 18.35 258.25 18.35L258.25 18.35Q257.73 18.35 257.40 18.65Q257.08 18.94 257.08 19.42ZM265.47 21.34L265.47 21.34L266.33 19.55Q266.83 19.88 267.44 20.07Q268.04 20.25 268.65 20.25L268.65 20.25Q269.26 20.25 269.63 20.01Q269.99 19.78 269.99 19.36L269.99 19.36Q269.99 18.94 269.64 18.72Q269.28 18.51 268.36 18.51L268.36 18.51L266.09 18.51L266.51 13.60L271.86 13.60L271.86 15.44L268.47 15.44L268.36 16.66L268.93 16.66Q270.69 16.66 271.54 17.38Q272.38 18.10 272.38 19.30L272.38 19.30Q272.38 20.08 271.98 20.73Q271.58 21.39 270.76 21.78Q269.93 22.17 268.72 22.17L268.72 22.17Q267.83 22.17 266.96 21.95Q266.10 21.74 265.47 21.34Z" fill="#404EED" x="105.37"/></svg>