<svg xmlns="http://www.w3.org/2000/svg" width="65.93" height="35" viewBox="0 0 65.93 35"><rect class="svg__rect" x="0" y="0" width="65.93" height="35" fill="#E44D26"/><rect class="svg__rect" x="65.93" y="0" width="0" height="35" fill="#005384"/><path class="svg__text" d="M15.70 22L14.22 22L14.22 13.47L15.70 13.47L15.70 17.02L19.51 17.02L19.51 13.47L20.99 13.47L20.99 22L19.51 22L19.51 18.21L15.70 18.21L15.70 22ZM27.41 14.66L24.78 14.66L24.78 13.47L31.54 13.47L31.54 14.66L28.88 14.66L28.88 22L27.41 22L27.41 14.66ZM36.78 22L35.30 22L35.30 13.47L37.22 13.47L39.68 20.01L42.14 13.47L44.05 13.47L44.05 22L42.58 22L42.58 19.19L42.72 15.43L40.20 22L39.14 22L36.63 15.43L36.78 19.19L36.78 22ZM54.15 22L48.79 22L48.79 13.47L50.28 13.47L50.28 20.82L54.15 20.82L54.15 22Z" fill="#FFFFFF"/><path class="svg__text" d="" fill="#FFFFFF" x="78.93"/></svg>