<svg xmlns="http://www.w3.org/2000/svg" width="81.82" height="35" viewBox="0 0 81.82 35"><rect class="svg__rect" x="0" y="0" width="81.82" height="35" fill="#FF3E00"/><rect class="svg__rect" x="81.82" y="0" width="0" height="35" fill="#312E4F"/><path class="svg__text" d="M13.78 19.42L13.78 19.42L15.27 19.42Q15.27 20.15 15.75 20.55Q16.23 20.95 17.12 20.95L17.12 20.95Q17.90 20.95 18.29 20.63Q18.68 20.32 18.68 19.80L18.68 19.80Q18.68 19.24 18.28 18.94Q17.89 18.63 16.85 18.32Q15.82 18.01 15.21 17.63L15.21 17.63Q14.05 16.90 14.05 15.72L14.05 15.72Q14.05 14.69 14.89 14.02Q15.73 13.35 17.07 13.35L17.07 13.35Q17.96 13.35 18.66 13.68Q19.36 14.01 19.75 14.61Q20.15 15.22 20.15 15.96L20.15 15.96L18.68 15.96Q18.68 15.29 18.26 14.91Q17.84 14.54 17.06 14.54L17.06 14.54Q16.33 14.54 15.93 14.85Q15.53 15.16 15.53 15.71L15.53 15.71Q15.53 16.18 15.96 16.50Q16.40 16.81 17.39 17.10Q18.39 17.40 18.99 17.78Q19.60 18.16 19.88 18.65Q20.16 19.13 20.16 19.79L20.16 19.79Q20.16 20.86 19.34 21.49Q18.52 22.12 17.12 22.12L17.12 22.12Q16.20 22.12 15.42 21.77Q14.64 21.43 14.21 20.83Q13.78 20.22 13.78 19.42ZM26.74 22L23.69 13.47L25.31 13.47L27.45 20.14L29.62 13.47L31.25 13.47L28.18 22L26.74 22ZM40.78 22L35.20 22L35.20 13.47L40.74 13.47L40.74 14.66L36.68 14.66L36.68 17.02L40.19 17.02L40.19 18.19L36.68 18.19L36.68 20.82L40.78 20.82L40.78 22ZM50.33 22L44.97 22L44.97 13.47L46.46 13.47L46.46 20.82L50.33 20.82L50.33 22ZM56.14 14.66L53.50 14.66L53.50 13.47L60.27 13.47L60.27 14.66L57.61 14.66L57.61 22L56.14 22L56.14 14.66ZM69.60 22L64.02 22L64.02 13.47L69.56 13.47L69.56 14.66L65.50 14.66L65.50 17.02L69.01 17.02L69.01 18.19L65.50 18.19L65.50 20.82L69.60 20.82L69.60 22Z" fill="#FFFFFF"/><path class="svg__text" d="" fill="#32BDE9" x="94.82"/></svg>