<svg xmlns="http://www.w3.org/2000/svg" width="71.97999999999999" height="35" viewBox="0 0 71.97999999999999 35"><rect class="svg__rect" x="0" y="0" width="71.97999999999999" height="35" fill="#F05138"/><rect class="svg__rect" x="71.97999999999999" y="0" width="0" height="35" fill="#389AD5"/><path class="svg__text" d="M13.78 19.42L13.78 19.42L15.27 19.42Q15.27 20.15 15.75 20.55Q16.23 20.95 17.12 20.95L17.12 20.95Q17.90 20.95 18.29 20.63Q18.68 20.32 18.68 19.80L18.68 19.80Q18.68 19.24 18.28 18.94Q17.89 18.63 16.85 18.32Q15.82 18.01 15.21 17.63L15.21 17.63Q14.05 16.90 14.05 15.72L14.05 15.72Q14.05 14.69 14.89 14.02Q15.73 13.35 17.07 13.35L17.07 13.35Q17.96 13.35 18.66 13.68Q19.36 14.01 19.75 14.61Q20.15 15.22 20.15 15.96L20.15 15.96L18.68 15.96Q18.68 15.29 18.26 14.91Q17.84 14.54 17.06 14.54L17.06 14.54Q16.33 14.54 15.93 14.85Q15.53 15.16 15.53 15.71L15.53 15.71Q15.53 16.18 15.96 16.50Q16.40 16.81 17.39 17.10Q18.39 17.40 18.99 17.78Q19.60 18.16 19.88 18.65Q20.16 19.13 20.16 19.79L20.16 19.79Q20.16 20.86 19.34 21.49Q18.52 22.12 17.12 22.12L17.12 22.12Q16.20 22.12 15.42 21.77Q14.64 21.43 14.21 20.83Q13.78 20.22 13.78 19.42ZM25.83 22L23.86 13.47L25.33 13.47L26.66 19.88L28.29 13.47L29.53 13.47L31.14 19.89L32.45 13.47L33.92 13.47L31.95 22L30.54 22L28.91 15.77L27.25 22L25.83 22ZM39.56 22L38.08 22L38.08 13.47L39.56 13.47L39.56 22ZM45.85 22L44.37 22L44.37 13.47L49.79 13.47L49.79 14.66L45.85 14.66L45.85 17.20L49.29 17.20L49.29 18.38L45.85 18.38L45.85 22ZM55.63 14.66L52.99 14.66L52.99 13.47L59.76 13.47L59.76 14.66L57.10 14.66L57.10 22L55.63 22L55.63 14.66Z" fill="#FFFFFF"/><path class="svg__text" d="" fill="#FFFFFF" x="84.97999999999999"/></svg>