<svg xmlns="http://www.w3.org/2000/svg" width="121.63" height="35" viewBox="0 0 121.63 35"><rect class="svg__rect" x="0" y="0" width="121.63" height="35" fill="#2D79C7"/><rect class="svg__rect" x="121.63" y="0" width="0" height="35" fill="#312E4F"/><path class="svg__text" d="M16.25 14.66L13.61 14.66L13.61 13.47L20.38 13.47L20.38 14.66L17.72 14.66L17.72 22L16.25 22L16.25 14.66ZM26.18 18.86L23.31 13.47L24.96 13.47L26.92 17.51L28.88 13.47L30.52 13.47L27.66 18.86L27.66 22L26.18 22L26.18 18.86ZM35.92 22L34.44 22L34.44 13.47L37.70 13.47Q39.13 13.47 39.97 14.21Q40.81 14.96 40.81 16.18L40.81 16.18Q40.81 17.44 39.99 18.13Q39.17 18.83 37.68 18.83L37.68 18.83L35.92 18.83L35.92 22ZM35.92 14.66L35.92 17.64L37.70 17.64Q38.49 17.64 38.91 17.27Q39.32 16.90 39.32 16.19L39.32 16.19Q39.32 15.50 38.90 15.09Q38.48 14.68 37.74 14.66L37.74 14.66L35.92 14.66ZM50.67 22L45.10 22L45.10 13.47L50.63 13.47L50.63 14.66L46.58 14.66L46.58 17.02L50.08 17.02L50.08 18.19L46.58 18.19L46.58 20.82L50.67 20.82L50.67 22ZM54.44 19.42L54.44 19.42L55.92 19.42Q55.92 20.15 56.40 20.55Q56.88 20.95 57.78 20.95L57.78 20.95Q58.55 20.95 58.94 20.63Q59.33 20.32 59.33 19.80L59.33 19.80Q59.33 19.24 58.93 18.94Q58.54 18.63 57.51 18.32Q56.48 18.01 55.87 17.63L55.87 17.63Q54.70 16.90 54.70 15.72L54.70 15.72Q54.70 14.69 55.54 14.02Q56.38 13.35 57.72 13.35L57.72 13.35Q58.61 13.35 59.31 13.68Q60.01 14.01 60.41 14.61Q60.81 15.22 60.81 15.96L60.81 15.96L59.33 15.96Q59.33 15.29 58.91 14.91Q58.49 14.54 57.71 14.54L57.71 14.54Q56.98 14.54 56.58 14.85Q56.18 15.16 56.18 15.71L56.18 15.71Q56.18 16.18 56.62 16.50Q57.05 16.81 58.05 17.10Q59.04 17.40 59.64 17.78Q60.25 18.16 60.53 18.65Q60.81 19.13 60.81 19.79L60.81 19.79Q60.81 20.86 59.99 21.49Q59.18 22.12 57.78 22.12L57.78 22.12Q56.85 22.12 56.07 21.77Q55.30 21.43 54.87 20.83Q54.44 20.22 54.44 19.42ZM64.83 18.19L64.83 18.19L64.83 17.39Q64.83 16.19 65.26 15.27Q65.69 14.35 66.49 13.85Q67.29 13.35 68.33 13.35L68.33 13.35Q69.75 13.35 70.61 14.12Q71.47 14.89 71.61 16.29L71.61 16.29L70.13 16.29Q70.03 15.37 69.60 14.96Q69.17 14.55 68.33 14.55L68.33 14.55Q67.37 14.55 66.85 15.26Q66.33 15.96 66.32 17.33L66.32 17.33L66.32 18.09Q66.32 19.47 66.81 20.20Q67.31 20.92 68.26 20.92L68.26 20.92Q69.14 20.92 69.58 20.53Q70.02 20.14 70.13 19.22L70.13 19.22L71.61 19.22Q71.48 20.59 70.60 21.35Q69.72 22.12 68.26 22.12L68.26 22.12Q67.24 22.12 66.47 21.63Q65.69 21.15 65.27 20.26Q64.85 19.37 64.83 18.19ZM77.40 22L75.92 22L75.92 13.47L78.92 13.47Q80.40 13.47 81.20 14.13Q82.00 14.79 82.00 16.05L82.00 16.05Q82.00 16.90 81.59 17.48Q81.18 18.06 80.44 18.37L80.44 18.37L82.36 21.92L82.36 22L80.77 22L79.06 18.71L77.40 18.71L77.40 22ZM77.40 14.66L77.40 17.52L78.93 17.52Q79.68 17.52 80.10 17.15Q80.52 16.77 80.52 16.11L80.52 16.11Q80.52 15.43 80.13 15.05Q79.74 14.68 78.97 14.66L78.97 14.66L77.40 14.66ZM87.96 22L86.49 22L86.49 13.47L87.96 13.47L87.96 22ZM94.26 22L92.77 22L92.77 13.47L96.04 13.47Q97.47 13.47 98.31 14.21Q99.15 14.96 99.15 16.18L99.15 16.18Q99.15 17.44 98.33 18.13Q97.50 18.83 96.02 18.83L96.02 18.83L94.26 18.83L94.26 22ZM94.26 14.66L94.26 17.64L96.04 17.64Q96.83 17.64 97.24 17.27Q97.66 16.90 97.66 16.19L97.66 16.19Q97.66 15.50 97.24 15.09Q96.82 14.68 96.08 14.66L96.08 14.66L94.26 14.66ZM105.11 14.66L102.48 14.66L102.48 13.47L109.24 13.47L109.24 14.66L106.58 14.66L106.58 22L105.11 22L105.11 14.66Z" fill="#FFFFFF"/><path class="svg__text" d="" fill="#32BDE9" x="134.63"/></svg>